<?xml version="1.0" standalone="no"?>
<!DOCTYPE svg PUBLIC "-//W3C//DTD SVG 1.1//EN" "http://www.w3.org/Graphics/SVG/1.1/DTD/svg11.dtd">
<svg xmlns="http://www.w3.org/2000/svg">
<metadata>Copyright (C) 2016 by original authors @ fontello.com</metadata>
<defs>
<font id="fontello" horiz-adv-x="1000" >
<font-face font-family="fontello" font-weight="400" font-stretch="normal" units-per-em="1000" ascent="850" descent="-150" />
<missing-glyph horiz-adv-x="1000" />
<glyph glyph-name="hand-down" unicode="&#xe800;" d="m55 167h210c16 0 29 13 29 30v0c22 0 39 0 53-5 15-5 29-17 43-35l134-245 7-8 6-4c1-1 2-1 4-2 2 0 3 0 5-1l3 0c7 0 14 1 22 3 19 4 36 13 49 25 17 16 27 37 27 60 0 7-1 13-3 22l-51 190h286c12 0 23 2 34 7 11 4 21 11 29 19 9 9 15 19 20 29 4 11 7 23 7 34 0 12-3 24-7 35-3 7-8 15-13 22 5 6 10 14 13 22 4 11 7 22 7 34 0 1 0 2-1 4 1 1 1 2 1 3 0 12-3 24-7 34-5 11-11 21-20 29-8 9-18 15-29 20-3 1-6 2-9 3 3 9 5 18 5 27 0 1-1 2-1 4 0 1 1 2 1 3 0 12-3 23-7 34-5 11-11 21-21 31-8 7-17 14-28 18-11 4-22 7-34 7h-32c3 9 5 19 5 27l1 4v1c-1 23-10 45-28 63-17 16-39 25-62 25h-184c-2 0-5-1-7-1l-142-40h-76v12c0 16-13 29-29 29h-210c-16 0-29-13-29-29v-510c0-17 13-30 29-30z m318 470c3 0 5 0 8 1l142 39h180c8 0 16-3 22-9 6-6 9-13 9-21 0-4-1-8-2-11-2-4-4-7-7-10-3-3-6-6-10-7-1-1-6-2-9-3h-105c-16 0-29-13-29-30 0-16 13-29 29-29h218c4 0 8-1 12-2 4-2 7-4 10-7 3-3 5-6 7-10 1-3 2-7 2-11 0-2 0-3 0-4 0-2 0-3 0-4 0-4-1-8-2-12-2-3-4-7-7-10-1 0-1-1-2-1h-178c-16 0-29-13-29-30 0-16 13-29 29-29h218c4 0 8-1 12-2 4-2 7-4 10-7 3-3 5-6 7-10 1-4 2-8 2-12 0-1 0-2 0-3 0-2 0-3 0-4 0-4-1-8-2-12-2-3-4-7-7-10-1-1-3-2-4-3-6 1-12 2-18 2h-218c-16 0-29-13-29-30 0-16 13-29 29-29h218c4 0 8-1 12-2s7-4 10-7c3-3 5-6 7-10 1-4 2-8 2-12s-1-7-2-11c-2-4-4-7-7-10-3-3-6-5-10-7-4-1-8-2-12-2h-355c-16 0-29-13-29-29 0-17 13-30 29-30h9l54-205c1-2 1-4 1-6l0-2c0-6-3-11-8-16-4-4-9-7-15-9l-124 227c0 0-1 1-1 2l-2 3c-23 30-45 47-71 56-23 9-46 9-73 9v381h79z m-289 40h152v-451h-152v451z" horiz-adv-x="1000" />
<glyph glyph-name="seta-cima" unicode="&#xe801;" d="m483 776l374-374c12-12 18-27 18-42 0-16-6-31-18-43-24-24-62-24-86 0l-222 222v-560c0-34-27-61-61-61-33 0-60 27-60 61v570l-228-227c-23-24-61-24-85 0-24 24-24 62 0 85l368 369z" horiz-adv-x="1000" />
<glyph glyph-name="login" unicode="&#xe802;" d="m595 325c70 34 118 106 118 189 0 115-94 209-209 209-116 0-210-94-210-209 0-83 49-155 119-189-175-41-306-198-306-385v-43h793v43c0 187-131 344-305 385z m-91 312c68 0 123-55 123-123s-55-124-123-124c-68 0-124 55-124 124s56 123 124 123z m-308-654c21 151 151 268 308 268 156 0 286-117 307-268h-615z" horiz-adv-x="1000" />
<glyph glyph-name="ajuda2" unicode="&#xe803;" d="m301 443c-50 0-86 49-69 97 1 3 2 6 3 9 12 33 30 61 53 85 23 24 51 43 83 56 32 13 67 19 106 19 48 0 89-6 124-19 35-13 63-30 84-52 22-21 37-43 46-67 10-24 14-47 14-70 0-47-8-83-23-110-16-26-39-50-67-72-6-5-12-9-18-12-26-20-47-37-61-53-14-16-23-36-27-62l0 0c0-22-18-40-41-40h-56c-27 0-49 21-49 48l0 0c3 42 13 76 29 101 16 25 38 47 65 68 2 2 5 4 9 7 24 19 42 36 53 51 11 15 17 34 17 59 0 32-8 56-24 73-16 16-38 24-68 24-36 0-64-13-82-40-8-11-15-25-20-39-11-36-43-61-80-61h-1z m178-346c-52 0-95-42-95-95 0-52 43-95 95-95 53 0 95 43 95 95 0 53-42 95-95 95z" horiz-adv-x="1000" />
<glyph glyph-name="hand-up" unicode="&#xe804;" d="m939 519h-210c-16 0-29-14-29-30v0c-22 0-39 0-53 5-15 5-28 16-43 35l-134 245-7 8-5 4c-1 0-3 1-5 1-1 1-3 1-4 1l-4 1c-7 0-14-1-22-3-18-4-36-13-49-26-17-16-26-37-26-60 0-6 1-13 2-21l51-190h-286c-11 0-23-3-34-7-11-5-21-11-29-20-8-8-15-18-19-29-5-10-7-22-7-34 0-11 2-23 7-34 3-8 8-15 13-22-6-7-10-14-13-22-5-11-7-22-7-34 0-1 0-3 0-4 0-1 0-2 0-4 0-11 2-23 7-34 4-10 11-20 19-29 8-8 18-14 29-19 3-1 6-2 9-3-3-9-4-18-4-27 0-1 0-3 0-4 0-1 0-2 0-4 0-11 2-23 7-34 4-10 11-20 20-30 8-8 18-14 28-18 11-5 22-7 34-7h33c-4-9-6-19-6-27l0-4 0-1c0-23 10-45 27-63 17-16 39-25 62-25h184c3 0 5 0 8 1l142 39h75v-11c0-16 13-29 29-29h210c16 0 30 13 30 29v510c0 16-14 30-30 30z m-318-470c-2 0-5 0-8-1l-142-39h-180c-8 0-15 3-21 9-6 5-9 13-9 21 0 4 0 8 2 11 1 4 4 7 7 10 2 3 6 5 9 7 2 0 6 2 10 3h104c16 0 30 13 30 29 0 16-14 30-30 30h-218c-4 0-8 0-11 2-4 1-7 4-10 7-3 3-6 6-7 9-2 4-2 8-2 12 0 2-1 3-1 4 0 1 0 3 0 4 0 4 1 8 3 11 1 4 4 7 6 10 1 1 2 2 2 2h178c16 0 29 13 29 29 0 17-13 30-29 30h-218c-4 0-8 0-12 2-3 1-7 4-10 7-2 3-5 6-6 10-2 3-3 7-3 11 0 2 0 3 0 4 0 1 0 3 0 4 0 4 1 8 3 11 1 4 4 8 6 10 2 2 3 3 5 4 5-1 11-2 17-2h218c16 0 29 13 29 29s-13 30-29 30h-218c-4 0-8 0-11 2-4 1-8 4-11 7-2 3-5 6-6 10-2 3-3 7-3 11 0 4 1 8 3 12 1 4 4 7 7 10 2 3 6 5 10 7 3 1 7 2 11 2h355c17 0 30 13 30 29 0 17-13 30-30 30h-8l-55 204c0 3-1 5-1 7l0 2c1 6 4 11 8 16 4 3 9 6 16 9l123-227c1-1 1-1 2-2l2-3c23-30 44-47 70-56 24-9 47-9 73-9v-381h-79z m289-40h-151v451h151v-451z" horiz-adv-x="1000" />
<glyph glyph-name="loupe" unicode="&#xe805;" d="m893 29l-256 257c39 54 63 121 63 193 0 181-147 328-329 328-181 0-328-147-328-328 0-182 147-329 328-329 58 0 112 15 159 41l262-263c14-14 33-21 51-21s36 7 50 21c28 28 28 73 0 101z m-764 450c0 134 109 242 242 242s243-108 243-242-109-243-243-243-242 109-242 243z" horiz-adv-x="1000" />
<glyph glyph-name="trash" unicode="&#xe806;" d="m343-7c-16 0-29 13-29 28v429c0 16 13 29 29 29s28-13 28-29v-429c0-15-12-28-28-28z m186 28v429c0 16-13 29-29 29-16 0-29-13-29-29v-429c0-15 13-28 29-28 16 0 29 13 29 28z m157 0v429c0 16-13 29-29 29s-28-13-28-29v-429c0-15 12-28 28-28s29 13 29 28z m271 600c0-23-19-42-43-42h-57v-586c0-87-70-157-157-157h-386c-86 0-157 70-157 157v586h-71c-24 0-43 19-43 42s19 43 43 43h208l26 72c21 56 99 85 166 85h14c67 0 145-29 166-85l26-72h222c24 0 43-19 43-43z m-602 43h276l-19 52c-8 23-55 48-112 48h-14c-57 0-104-25-112-48l-19-52z m416-85h-528v-586c0-40 32-72 71-72h386c39 0 71 32 71 72v586z" horiz-adv-x="1000" />
<glyph glyph-name="seta-retroceder-1-passo" unicode="&#xe807;" d="m683-24c23-24 62-24 85 0 24 24 24 62 0 86l-283 283 288 288c24 23 24 61 0 85-11 12-27 18-42 18-16 0-31-6-43-18l-374-373 369-369z" horiz-adv-x="1000" />
<glyph glyph-name="seta-retroceder-ultimo" unicode="&#xe808;" d="m454-24c24-24 62-24 86 0 23 24 23 62 0 86l-283 283 288 288c23 23 23 61 0 85-12 12-27 18-43 18-15 0-31-6-43-18l-373-373 368-369z m352 0c24-24 62-24 85 0 24 24 24 62 0 86l-282 283 288 288c23 23 23 61 0 85-12 12-28 18-43 18-16 0-31-6-43-18l-373-373 368-369z" horiz-adv-x="1000" />
<glyph glyph-name="seta-avancar-ultimo" unicode="&#xe809;" d="m546 718c-24 24-62 24-86 0-23-24-23-62 0-85l283-283-288-288c-23-24-23-62 0-86 12-12 28-18 43-18 16 0 31 6 43 18l373 374-368 368z m-352 0c-23 24-62 24-85 0-24-24-24-62 0-85l282-283-288-288c-23-24-23-62 0-86 12-12 28-18 43-18 16 0 31 6 43 18l374 374-369 368z" horiz-adv-x="1000" />
<glyph glyph-name="v" unicode="&#xe80a;" d="m429-36c-17 0-34 8-45 21l-257 315c-20 24-16 60 8 80 25 20 61 16 81-8l210-257 385 540c18 25 54 31 79 13 26-18 32-54 14-80l-429-600c-10-14-27-23-45-24 0 0-1 0-1 0z" horiz-adv-x="1000" />
<glyph glyph-name="xis" unicode="&#xe80b;" d="m819 98c22-23 22-59 0-81-11-11-26-17-40-17s-30 6-41 17l-252 252-253-252c-11-11-26-17-40-17s-29 6-41 17c-22 22-22 58 0 81l253 252-253 253c-22 22-22 58 0 80 23 23 59 23 81 0l253-252 252 252c23 23 59 23 81 0 22-22 22-58 0-80l-252-253 252-252z" horiz-adv-x="1000" />
<glyph glyph-name="document" unicode="&#xe80c;" d="m521 847h-235c-87 0-157-71-157-157v-697c0-87 70-157 157-157h428c87 0 157 70 157 157v503l-350 351z m25-147l179-179h-107c-40 0-72 33-72 72v107z m168-779h-428c-40 0-72 32-72 72v697c0 39 32 71 72 71h174v-168c0-87 71-157 158-157h168v-443c0-40-32-72-72-72z" horiz-adv-x="1000" />
<glyph glyph-name="edit-lapis" unicode="&#xe80d;" d="m920 685l-143 142c-11 12-29 12-40 0l-543-542c-2-3-4-6-6-9l-100-214c-4-10-3-22 5-31 5-6 13-10 21-10 3 0 6 1 8 2l243 71c5 1 9 4 12 7l543 543c11 11 11 29 0 41z m-578-538l-175-52 71 153 401 400 102-102-399-399z m419 419l-102 103 98 98 103-103-99-98z m125-702h-743c-24 0-43 19-43 43s19 43 43 43h743c23 0 43-19 43-43s-20-43-43-43z" horiz-adv-x="1000" />
<glyph glyph-name="alert-exclamacao" unicode="&#xe80e;" d="m486 150c-40 0-72 32-72 71v486c0 40 32 72 72 72s71-32 71-72v-486c0-39-32-71-71-71z m0-53c-58 0-104-47-104-104 0-58 46-104 104-104 57 0 104 46 104 104 0 58-47 104-104 104z" horiz-adv-x="1000" />
<glyph glyph-name="btn-guia" unicode="&#xe80f;" d="m914 509c24 0 43 19 43 43s-19 43-43 43h-138l0 138c0 16-13 29-28 29-16 0-29-13-29-29l0-139c-261-15-470-224-484-485h-140c-15 0-28-12-28-28 0-16 13-29 28-29h138v-138c0-24 19-43 43-43s43 19 43 43v138h400l0-138c0-16 13-29 29-29 15 0 28 13 28 29l0 138h138c16 0 29 13 29 29 0 16-13 28-29 28h-138l0 400h138z m-594-400c15 214 186 385 399 399l0-399h-399z m-260 429h-15c-15 0-28 13-28 28 0 16 13 29 28 29h15c15 0 28-13 28-29 0-15-13-28-28-28z m462 28c0 16-13 29-28 29h-28c-15 0-28-13-28-29 0-15 13-28 28-28h28c15 0 28 13 28 28z m-108 0c0 16-13 29-29 29h-27c-16 0-29-13-29-29 0-15 13-28 29-28h27c16 0 29 13 29 28z m-217 0c0 16-13 29-29 29h-27c-16 0-29-13-29-29 0-15 13-28 29-28h27c16 0 29 13 29 28z m-28 77l122 143v14c0 16-13 29-29 29-16 0-29-13-29-29v-14c0-16 13-28 29-28 16 0 29 12 29 28z m122-315v28c0 16-13 29-29 29-16 0-29-13-29-29v-28c0-16 13-29 29-29 16 0 29 13 29 29z m0 114v29c0 16-13 29-29 29-16 0-29-13-29-29v-29c0-15 13-28 29-28 16 0 29 13 29 28z m0 230v28c0 16-13 29-29 29-16 0-29-13-29-29v-28c0-16 13-29 29-29 16 0 29 13 29 29z m0-110v4c0 16-13 29-29 29-16 0-29-13-29-29v-4c0-16 13-29 29-29 16 0 29 13 29 29z" horiz-adv-x="1000" />
<glyph glyph-name="btn-templates" unicode="&#xe810;" d="m771-146h-349c-55 0-100 45-100 100v597c0 56 45 100 100 100h349c56 0 101-44 101-100v-597c-1-55-45-100-101-100z m-349 712c-8 0-14-7-14-15v-597c0-8 6-14 14-14h349c8 0 15 6 15 14v597c0 8-7 15-15 15h-349z m-160-470h-53c-8 0-14 6-14 14v626c0 8 6 14 14 14h350c7 0 14-6 14-14v-38h86v38c0 55-45 100-100 100h-350c-55 0-100-45-100-100v-626c0-55 45-100 100-100h53v86z" horiz-adv-x="1000" />
<glyph glyph-name="btn-componentes" unicode="&#xe811;" d="m278 625c0-45-36-82-82-82l0 0c-45 0-82 37-82 82l0 0c0 45 37 82 82 82l0 0c46 0 82-37 82-82l0 0z m0-578c0 45-36 82-82 82l0 0c-45 0-82-37-82-82l0 0c0-46 37-83 82-83l0 0c46 0 82 37 82 83l0 0z m608 0c0 45-37 82-82 82l0 0c-46 0-82-37-82-82l0 0c0-46 36-83 82-83l0 0c45 0 82 37 82 83l0 0z m-293 0c0 45-37 82-82 82l0 0c-46 0-82-37-82-82l0 0c0-46 36-83 82-83l0 0c45 0 82 37 82 83l0 0z m293 287c0 39-32 71-71 71h-630c-39 0-71-32-71-71l0 0c0-39 32-71 71-71h630c39 0 71 32 71 71l0 0z m0 295c0 39-32 71-71 71h-406c-39 0-71-32-71-71l0 0c0-39 32-71 71-71h406c39 0 71 32 71 71l0 0z" horiz-adv-x="1000" />
<glyph glyph-name="sanduiche" unicode="&#xe812;" d="m880 528h-796c-27 0-48 21-48 48s21 48 48 48h796c27 0 49-21 49-48s-22-48-49-48z m49-191c0 27-22 48-49 48h-796c-27 0-48-21-48-48 0-26 21-48 48-48h796c27 0 49 22 49 48z m0-239c0 27-22 49-49 49h-796c-27 0-48-22-48-49 0-26 21-48 48-48h796c27 0 49 22 49 48z" horiz-adv-x="1000" />
<glyph glyph-name="seta-esquerda" unicode="&#xe813;" d="m57 345l374 373c12 12 27 18 43 18 15 0 30-6 42-18 24-24 24-62 0-85l-222-223h560c33 0 61-27 61-60 0-34-28-61-61-61h-570l227-227c24-24 24-62 0-86-24-24-62-24-85 0l-369 369z" horiz-adv-x="1000" />
<glyph glyph-name="seta-esquerda-baixo" unicode="&#xe814;" d="m167 42l0 528c0 17 7 32 18 43 11 11 26 18 42 18 34 0 61-27 61-61v-314l396 396c24 24 62 24 86 0 23-24 23-62 0-85l-404-404 322 0c33 0 60-27 60-60 0-34-27-61-60-61l-521 0z" horiz-adv-x="1000" />
<glyph glyph-name="seta-esquerda-cima" unicode="&#xe815;" d="m163 666l529 0c16 0 31-7 42-18 11-10 18-26 18-42 0-34-27-61-60-61h-315l396-396c24-24 24-62 0-85-24-24-62-24-85 0l-404 403 0-322c0-33-27-60-60-60-34 0-61 27-61 60l0 521z" horiz-adv-x="1000" />
<glyph glyph-name="seta-baixo" unicode="&#xe816;" d="m488-82l-373 374c-12 12-18 27-18 43 0 15 6 31 18 43 24 23 62 23 85 0l223-223v560c0 34 27 61 60 61 34 0 61-27 61-61v-570l227 227c24 24 62 24 86 0 23-23 23-62 0-85l-369-369z" horiz-adv-x="1000" />
<glyph glyph-name="seta-direita" unicode="&#xe817;" d="m915 350l-374-374c-12-12-27-18-43-18s-31 6-43 18c-23 24-23 62 0 86l223 222h-560c-34 0-61 27-61 61 0 33 27 60 61 60h570l-227 228c-24 23-24 61 0 85 23 24 62 24 85 0l369-368z" horiz-adv-x="1000" />
<glyph glyph-name="seta-direita-baixo" unicode="&#xe818;" d="m791 46l-528 0c-17 0-32 7-43 18-11 11-18 26-18 42 0 34 27 61 61 61h314l-396 396c-24 24-24 62 0 85 24 24 62 24 86 0l403-403 0 322c0 33 27 60 60 60 34 0 61-27 61-60l0-521z" horiz-adv-x="1000" />
<glyph glyph-name="seta-avancar-1-passo" unicode="&#xe819;" d="m346 718c-24 24-62 24-86 0-23-24-23-62 0-85l283-283-288-288c-23-24-23-62 0-86 12-12 28-18 43-18s31 6 43 18l373 374-368 368z" horiz-adv-x="1000" />
<glyph glyph-name="download-" unicode="&#xe81a;" d="m881-107h-771c-24 0-43 19-43 43 0 23 19 43 43 43h771c24 0 43-20 43-43 0-24-19-43-43-43z m-74 469c-22 22-58 22-81 0l-174-174v519c0 32-25 57-57 57-31 0-57-25-57-57v-519l-174 174c-22 22-58 22-81 0-22-22-22-59 0-81l272-271c11-11 25-17 40-17s30 6 41 17l271 271c22 22 22 59 0 81z" horiz-adv-x="1000" />
<glyph glyph-name="engrenagem" unicode="&#xe81b;" d="m932 229c-7 24-23 43-44 54l-40 22c-5 3-8 8-7 15l0 6c1 9 2 18 2 26 0 9-1 18-2 26l0 7c-1 6 2 11 7 13l41 23c21 12 37 32 43 56 6 23 2 46-10 66l-37 60c-16 27-48 45-80 45-16 0-32-4-46-12l-41-22c-4-3-13-2-17 1l-12 8c-13 10-25 18-41 24 0 0-2 3-2 13v73c0 17-6 48-49 61-21 6-43 6-58 6h-74c-24 0-87 0-87-67v-72c0-4-4-10-12-13-25-10-45-21-62-33-4-3-13-4-18-1l-41 22c-13 8-29 12-45 12-33 0-64-18-80-44l-38-61c-11-21-15-43-9-69 7-23 22-42 44-53l40-23c5-2 8-7 7-14l-1-8c0-8-1-16-1-25 0-8 1-17 2-27l0-6c1-6-2-11-6-13l-42-22c-21-13-37-33-43-57-6-22-2-45 10-65l36-61c17-27 47-44 80-44 16 0 32 4 46 11l40 23c5 3 13 2 19-2 17-12 39-23 64-33 7-3 12-10 12-12v-54c0-49 34-101 86-101h91c53 0 90 53 90 101v54c0 9 2 12 2 12 0 0 0 0 0 0 22 9 38 20 57 34 5 3 12 3 16 1l41-23c13-7 29-11 45-11 31 0 61 16 79 44l39 64c10 22 12 46 6 65z m-366-237c-1-11-5-23-11-23h-88c-3 2-8 11-8 22v54c0 36-24 69-60 84-22 9-37 17-49 26-32 21-74 22-104 4l-40-21c-8-4-14-2-18 3l-36 61c-2 2-2 4-1 6 1 3 2 5 5 7l40 23c33 18 52 54 48 91-1 9-2 17-2 24 0 8 1 15 2 25 4 36-15 73-48 91l-41 23c-3 1-4 4-5 6 0 2 1 5 2 7l37 60c4 6 12 7 18 4l40-22c31-17 74-15 104 5 14 10 29 18 48 26 36 15 60 48 60 84v60c2 0 4 0 6 0h74c13 0 22-1 27-1v-60c0-53 27-75 49-84 11-5 17-9 27-16l5-4c2-1 5-3 9-6 30-20 73-22 103-5l39 22c5 2 7 2 8 2 5 0 9-2 11-6l37-60c3-5 1-11-5-14l-39-22c-33-18-52-54-48-90 1-9 2-18 2-26 0-8-1-16-2-25-4-37 15-73 47-90l42-23c2-2 4-4 4-5 0-2 0-5-2-7l-36-60c-4-6-11-8-18-5l-39 23c-32 17-71 15-103-7-16-11-27-19-42-24-18-9-49-31-49-84l0-53z m85 359c0 79-67 144-148 144-82 0-149-64-149-143 0-79 67-143 149-143 81 0 148 64 148 142z m-80 0c0-34-32-63-68-63-38 0-69 28-69 63 0 35 32 64 69 64 37 0 68-29 68-64z" horiz-adv-x="1000" />
<glyph glyph-name="envelope2" unicode="&#xe81c;" d="m937 609h-3c-12 40-49 69-92 69h-691c-53 0-96-43-96-96v-465c0-53 43-96 96-96h692c53 0 96 43 96 96v478l-2 14z m-82-115v-379c0-9-10-10-13-10h-691c-5 0-13 1-13 10v379l340-181c2-1 9-5 19-5 9 0 16 4 19 5l339 181z m0 94l-358-191-358 192c1 1 1 1 2 2 2 2 6 3 10 3h692c4 0 10 0 12-6z" horiz-adv-x="1000" />
<glyph glyph-name="certificate" unicode="&#xe81d;" d="m571 64h-428c-55 0-100 45-100 100v515c0 55 45 100 100 100h628c56 0 100-45 100-100v-143h-85v143c0 7-7 14-15 14h-628c-8 0-14-7-14-14v-515c0-7 6-14 14-14h428v-86z m115 557h-457v-57h457v57z m-172-142h-285v-58h285v58z m0-143h-285v-57h285v57z m400-29c0 95-76 172-171 172s-172-77-172-172c0-68 40-126 97-154l-97-217 172 85 171-114-78 256c47 31 78 84 78 144z" horiz-adv-x="1000" />
<glyph glyph-name="pinmap" unicode="&#xe81e;" d="m722 645c-63 63-146 97-234 93-171-6-304-144-304-314 0-67 20-130 57-181l199-328c12-21 36-34 61-34 24 0 47 13 60 34l198 329c36 52 55 114 55 178 0 85-32 164-92 223z m3-223c0-44-13-87-37-124l-188-312-186 307c-27 38-41 83-41 131 0 121 95 221 217 226h9c60 0 117-24 160-68 42-42 66-99 66-160z m-226 152c-40 0-77-15-104-43s-43-64-43-104c0-39 15-76 43-103 27-28 64-43 104-43 80 0 146 66 146 146 0 81-66 147-146 147z m0-205c-32 0-58 26-58 58s26 58 58 58c32 0 58-26 58-58s-26-58-58-58z" horiz-adv-x="1000" />
<glyph glyph-name="filtro" unicode="&#xe81f;" d="m924 733c-9 22-30 36-53 36h-741c-23 0-44-14-53-36-9-23-4-47 12-64l291-289v-336c0-20 9-38 25-48l131-93c10-7 21-10 32-10 16 0 31 6 41 16 11 12 17 27 17 42v429l287 291c16 17 20 42 11 62z m-478-302l-254 255h620l-252-254c-11-11-17-25-17-41v-391l-80 57v334c0 15-6 29-17 40z" horiz-adv-x="1000" />
<glyph glyph-name="seta-single-baixo" unicode="&#xe820;" d="m868 477c24 24 24 62 0 86-24 23-62 23-85 0l-283-283-288 288c-24 23-62 23-86 0-12-12-17-27-17-43 0-15 5-31 17-43l374-373 368 368z" horiz-adv-x="1000" />
<glyph glyph-name="seta-single-cima" unicode="&#xe821;" d="m126 217c-23-23-23-62 0-85 24-24 62-24 86 0l283 282 288-288c23-23 61-23 85 0 12 12 18 28 18 43 0 16-6 31-18 43l-373 374-369-369z" horiz-adv-x="1000" />
<glyph glyph-name="camera1" unicode="&#xe822;" d="m986 533c-3 49-39 84-87 84h-181c-26 62-88 103-157 103h-127c-69 0-130-41-157-103h-161c-51 0-95-39-95-86v-435c0-47 44-89 95-89h784c48 0 86 39 86 89l0 437z m-88-3v-434c0 0 0-1 0-1h-782c-3 0-6 2-7 3v429c1 2 4 3 7 3h229l7 36c7 38 42 66 82 66h127c40 0 75-28 82-66l7-36 248 0z m-254-67c-37 37-87 57-140 57-109 0-198-87-198-194 0-53 21-102 59-139 37-36 86-56 139-56 54 0 105 20 142 58 37 37 56 85 56 137 0 52-21 101-58 137z m-20-138c1-30-11-59-33-81-23-23-54-36-87-36-66 0-120 53-120 118 0 64 54 116 120 116 66 0 120-52 120-117z" horiz-adv-x="1000" />
<glyph glyph-name="star" unicode="&#xe823;" d="m730-86c-8 0-16 1-22 5l-210 117c-8 4-20 3-24 1l-2-2-219-119-12 0c-13 0-25 5-34 14l-5 4-3 5c-5 9-8 21-7 32l0 3 42 244c1 11-2 23-10 31l-167 173c-13 14-17 32-12 50 6 18 21 31 39 34l234 34c10 2 18 8 23 17l104 221c8 17 26 28 44 28 18 0 35-11 43-28l104-223c4-9 13-16 24-18l231-37c17-1 33-14 39-34 6-19 1-39-14-51l-167-170c-9-8-12-19-10-30l38-244c2-13-1-28-10-39-9-11-23-18-37-18z m0 85v-42 42l0 0 0 0z m-245 126c18 0 37-5 54-14l142-79-27 169c-6 39 7 78 35 105l119 121-163 26c-37 7-69 31-86 64l-71 152-70-148c-16-35-47-59-85-66l-166-24 120-124c26-28 37-66 31-103l-29-171 141 77c15 9 35 15 55 15z" horiz-adv-x="1000" />
<glyph glyph-name="hifi4" unicode="&#xe824;" d="m685 265c22-22 22-58 0-80-11-12-26-17-40-17s-30 5-41 17c-54 54-143 54-197 0-22-23-58-23-81 0-22 22-22 58 0 80 99 99 260 99 359 0z m-496 138c-22-23-22-59 0-81 22-22 59-22 81 0 130 130 341 130 471 0 12-11 26-17 41-17s29 6 40 17c23 22 23 58 0 81-174 174-458 174-633 0z m760 173c-118 119-276 184-443 184-168 0-325-65-444-184-22-22-22-58 0-81 11-11 26-16 40-16s30 5 41 16c97 97 226 151 363 151 137 0 265-54 362-151 23-22 59-22 81 0 23 23 23 59 0 81z m-383-436c-33 33-88 33-121 0-33-34-33-88 0-121 33-34 88-34 121 0 34 33 34 87 0 121z" horiz-adv-x="1000" />
<glyph glyph-name="dialogbox2" unicode="&#xe825;" d="m699-136c-12 0-25 6-33 16l-200 241h-295c-70 0-128 58-128 129v429c0 71 58 128 128 128h658c71 0 128-57 128-128v-429c0-71-57-129-128-129h-87v-214c0-18-11-34-28-40-5-2-10-3-15-3z m-528 857c-23 0-42-19-42-42v-429c0-24 19-43 42-43h315c13 0 25-5 33-15l137-166v138c0 24 19 43 43 43h130c23 0 42 19 42 43v429c0 23-19 42-42 42h-658z" horiz-adv-x="1000" />
<glyph glyph-name="coracao" unicode="&#xe826;" d="m499-83c-18 0-35 6-49 18l-48 49c-88 91-273 279-297 301-52 48-81 112-81 179s29 131 81 179c47 43 105 64 178 64 58 0 124-34 202-104l15-14 14 14c71 67 144 105 200 105 69 0 127-23 180-72 52-47 80-111 80-178s-28-132-80-180c-5-4-191-189-345-341l-2-3c-19-16-40-17-48-17z m-216 705c-52 0-89-13-120-42-34-32-53-73-53-116s19-84 53-116c23-21 158-158 300-304l36-36c149 147 332 329 336 333 35 32 53 73 53 116 0 44-18 85-52 116-38 34-74 49-122 49-26 0-81-25-141-81l-72-68-73 66c-80 72-125 83-145 83z" horiz-adv-x="1000" />
<glyph glyph-name="casinha3" unicode="&#xe827;" d="m920 394l-91 86v141c0 16-13 29-29 29h-150l-87 82c-16 15-37 23-58 23-22 0-43-8-59-23l-362-338c-25-24-34-61-21-94 13-33 45-54 80-54h64v-253c0-48 39-86 86-86h423c47 0 86 38 86 86v253h59c35 0 67 21 80 54 13 32 5 70-21 94z m-149 199v-59l-61 59h61z m-55-262v-338h-423v338h-150l362 338 356-338h-145z" horiz-adv-x="1000" />
<glyph glyph-name="reload2" unicode="&#xe828;" d="m886 350c0-213-173-386-386-386s-386 173-386 386c0 32 26 57 58 57s57-25 57-57c0-150 121-271 271-271 150 0 271 121 271 271 0 134-98 246-226 267v-110l-345 172 345 171v-117c192-23 341-186 341-383z" horiz-adv-x="1000" />
<glyph glyph-name="seta-direita-cima" unicode="&#xe829;" d="m787 670l0-528c0-17-7-32-18-43s-26-18-42-18c-34 0-61 27-61 61v314l-396-396c-24-24-62-24-85 0-24 24-24 62 0 85l403 404-322 0c-33 0-60 27-60 60 0 34 27 61 60 61l521 0z" horiz-adv-x="1000" />
<glyph glyph-name="clock" unicode="&#xe82a;" d="m529 293h-300v86h214v185h86v-271z m428 43c0-260-211-472-471-472-260 0-472 212-472 472 0 260 212 471 472 471 260 0 471-211 471-471z m-87-29h-70v57h70c-14 190-166 342-356 356v-70h-57v70c-190-14-341-166-355-356h69v-57h-69c14-190 165-342 355-356v70h57v-70c190 14 342 166 356 356z" horiz-adv-x="1000" />
<glyph glyph-name="manutencao" unicode="&#xe82b;" d="m590 399l-57-56 297-297c22-22 22-58 0-81-11-11-26-16-41-16-14 0-29 5-40 16l-297 297-275-275-40 40 275 275-107 107c-64-32-144-22-198 32-52 52-63 131-33 195l111-112 81 81-111 111c63 31 142 20 195-33 52-52 63-128 34-191l109-109 55 56-20 20 260 260c22 22 59 22 81 0 11-11 17-26 17-40s-6-30-17-41l-259-259-20 20z" horiz-adv-x="1000" />
<glyph glyph-name="graphh2" unicode="&#xe82c;" d="m486 778c-229 0-414-185-414-414s185-414 414-414 414 186 414 414-186 414-414 414z m28-87c76-6 144-38 196-87l-196-195v282z m-357-327c0 172 132 313 300 327v-351c0-1 0-1 0-1 0 0 0 0 0 0 0-1 0-1 0-1 1-3 1-6 2-9 1-1 1-2 2-3 1-2 3-4 5-6 0-1 0-1 1-2l228-206c-57-48-130-76-209-76-181 0-329 147-329 328z m579-212l-209 189 221 220c41-55 66-123 66-197 0-81-29-155-78-212z" horiz-adv-x="1000" />
<glyph glyph-name="audio4" unicode="&#xe82d;" d="m457 7c-11 0-22 5-30 13l-156 159h-185c-24 0-43 19-43 42v219c0 24 19 43 43 43h185l156 159c12 12 30 16 46 9 17-6 27-22 27-39v-562c0-17-10-33-27-40-5-2-10-3-16-3z m-328 257h160c12 0 23-4 31-13l94-96v352l-94-97c-8-8-19-13-31-13h-160v-133z m442-134c-9 0-19 3-27 10-18 15-21 42-6 60 59 72 64 177 13 255-14 20-8 46 11 59 20 13 47 8 60-12 72-108 65-255-17-356-9-10-21-16-34-16z m83-120c-11 0-22 5-30 13-17 17-17 44 0 61 139 139 139 365 0 504-17 17-17 44 0 60 16 17 43 17 60 0 173-172 173-453 0-625-8-8-19-13-30-13z m112-112c-11 0-22 4-30 12-17 17-17 44 0 61 201 201 201 528 0 729-17 17-17 44 0 61 17 17 44 17 61 0 234-234 234-616 0-851-9-8-20-12-31-12z" horiz-adv-x="1000" />
<glyph glyph-name="graphh3" unicode="&#xe82e;" d="m952 50v-57h-866v657h57v-600h71v371h129v-371h43v229h128v-229h43v371h129v-371h43v514h128v-514h95z" horiz-adv-x="1000" />
<glyph glyph-name="registro-entrada2" unicode="&#xe82f;" d="m792 493c-17 17-44 17-61 0s-17-44 0-60l80-80h-189v292c0 59-49 107-108 107h-376c-59 0-107-48-107-107v-726h591v348h189l-80-80c-17-16-17-43 0-60 9-9 20-13 30-13s22 4 31 13l183 183-183 183z m-256-488h-420v640c0 12 10 21 22 21h376c12 0 22-9 22-21v-292h-201c-23 0-42-19-42-43s19-43 42-43h201v-262z" horiz-adv-x="1000" />
<glyph glyph-name="registro-saida" unicode="&#xe830;" d="m850 752h-421c-60 0-108-48-108-107v-292h-235c-24 0-43-19-43-43s19-43 43-43h235v-348h636v726c0 59-48 107-107 107z m21-747h-464v262h232l-79-80c-17-16-17-43 0-60 8-9 19-13 30-13s22 4 30 13l184 183-184 183c-16 17-44 17-60 0s-17-44 0-60l79-80h-232v292c0 12 10 21 22 21h421c12 0 22-9 22-21v-640z" horiz-adv-x="1000" />
<glyph glyph-name="forward" unicode="&#xe831;" d="m780 323l-232-178c-28-22-51-10-51 25v99l-161-124c-28-22-51-10-51 25v384c0 35 23 46 51 25l161-124v99c0 35 23 46 51 25l232-178c28-22 28-57 0-78z" horiz-adv-x="1000" />
<glyph glyph-name="play" unicode="&#xe832;" d="m712 323l-271-208c-28-22-51-11-51 25v444c0 35 23 47 51 25l271-208c28-22 28-57 0-78z" horiz-adv-x="1000" />
<glyph glyph-name="step-backward" unicode="&#xe833;" d="m234 325c-27 20-27 54 0 74l220 169c26 21 48 10 48-24v-365c0-33-22-44-48-23l-220 169z m360 195v-321c0-36 28-65 64-65s64 29 64 65v321c0 35-29 64-64 64s-64-29-64-64z" horiz-adv-x="1000" />
<glyph glyph-name="step-foward" unicode="&#xe834;" d="m759 394c27-21 27-54 0-75l-220-169c-27-20-48-9-48 24v365c0 33 21 44 48 24l220-169z m-360-195v321c0 35-29 64-64 64s-64-29-64-64v-321c0-36 28-65 64-65s64 29 64 65z" horiz-adv-x="1000" />
<glyph glyph-name="pause" unicode="&#xe835;" d="m447 172v385c0 36-29 65-64 65s-64-29-64-65v-385c0-36 29-64 64-64s64 28 64 64z m250 0v385c0 36-29 65-64 65-36 0-64-29-64-65v-385c0-36 28-64 64-64 35 0 64 28 64 64z" horiz-adv-x="1000" />
<glyph glyph-name="backward" unicode="&#xe836;" d="m249 401l231 178c28 21 51 10 51-25v-99l162 124c28 21 51 10 51-25v-384c0-35-23-47-51-25l-162 124v-99c0-35-23-47-51-25l-231 178c-28 21-28 56 0 78z" horiz-adv-x="1000" />
<glyph glyph-name="alarme" unicode="&#xe837;" d="m831 125c-17 25-102 153-102 268l0 132c-2 56-45 158-186 180v47c0 31-26 57-57 57s-57-26-57-57v-47c-141-22-184-124-186-182v-130c0-115-86-243-103-269-7-7-11-17-11-29v-16c0-24 19-43 42-43h175c19-60 74-104 140-104s121 44 139 104h175c24 0 43 19 43 43v16c0 0 0 0 0 0s0 0 0 0c0 12-4 22-12 30z m-591-4c36 62 89 168 89 272l0 128c0 11 10 102 157 102s156-91 157-100v-130c0-104 52-210 89-272h-492z" horiz-adv-x="1000" />
<glyph glyph-name="popup" unicode="&#xe838;" d="m962 806v-344c0-24-19-43-42-43s-43 19-43 43v198l-392-391c-8-9-19-13-30-13s-22 4-30 13c-17 16-17 43 0 60l391 392-198 0c-24 0-43 19-43 43 0 23 19 42 43 42l344 0z m-167-706v256c0 24-19 43-43 43s-42-19-42-43v-256c0-40-33-73-73-73h-380c-41 0-73 33-73 73v383c0 40 32 72 73 72h255c24 0 43 20 43 43s-19 43-43 43h-255c-88 0-159-71-159-158v-383c0-87 71-158 159-158h380c87 0 158 71 158 158z" horiz-adv-x="1000" />
<glyph glyph-name="mudo" unicode="&#xe839;" d="m457 7c-11 0-22 5-30 13l-156 159h-185c-24 0-43 19-43 42v219c0 24 19 43 43 43h185l156 159c12 12 30 16 46 9 17-6 27-22 27-39v-562c0-17-10-33-27-40-5-2-10-3-16-3z m-328 257h160c12 0 23-4 31-13l94-96v352l-94-97c-8-8-19-13-31-13h-160v-133z m827-52c17-17 17-44 0-61-9-8-19-12-30-12s-22 4-31 12l-134 134-134-134c-8-8-19-12-30-12s-22 4-30 12c-17 17-17 44 0 61l134 134-134 134c-17 16-17 44 0 60s43 17 60 0l134-134 134 134c17 17 44 17 61 0s17-44 0-60l-134-134 134-134z" horiz-adv-x="1000" />
<glyph glyph-name="printer" unicode="&#xe83a;" d="m838 295c0-19-15-35-35-35-19 0-35 16-35 35s16 35 35 35c20 0 35-15 35-35z m84-309h-169v-126h-531v126h-143v345c0 44 36 79 79 79h64v386h363l168-167v-219h81c48 0 88-39 88-87v-337z m-344 635h101l-101 102v-102z m-299-211v-72h416v72 183h-132c-8 0-14 6-14 14v132h-270v-329z m416-424l0 0 0 103h-416v-103-69h416v69z m169 337c0 17-13 30-30 30h-81v-72h-531v72h-64c-12 0-22-10-22-22v-288h86v103h531 0v-103h111v280z" horiz-adv-x="1000" />
<glyph glyph-name="lock2" unicode="&#xe83b;" d="m743 407v157c0 126-103 229-229 229s-228-103-228-229v-157h-143v-486h743v486h-143z m-372 157c0 79 65 143 143 143s143-64 143-143v-157h-286v157z m429-557h-571v314h571v-314z" horiz-adv-x="1000" />
<glyph glyph-name="ok-circled" unicode="&#xe83c;" d="m717 440q0 16-11 26l-50 50q-11 11-25 11t-26-11l-227-227-126 126q-11 11-25 11t-26-11l-50-50q-10-10-10-26 0-15 10-25l202-202q10-10 25-10 15 0 25 10l303 303q11 10 11 25z m140-90q0-117-57-215t-156-156-215-58-216 58-155 156-58 215 58 215 155 156 216 58 215-58 156-156 57-215z" horiz-adv-x="857.1" />
<glyph glyph-name="attention-circled" unicode="&#xe83d;" d="m429 779q116 0 215-58t156-156 57-215-57-215-156-156-215-58-216 58-155 156-58 215 58 215 155 156 216 58z m71-696v106q0 8-5 13t-12 5h-107q-8 0-13-5t-6-13v-106q0-8 6-13t13-6h107q7 0 12 6t5 13z m-1 192l10 346q0 7-6 10-5 5-13 5h-123q-8 0-13-5-6-3-6-10l10-346q0-6 5-10t14-4h103q8 0 13 4t6 10z" horiz-adv-x="857.1" />
<glyph glyph-name="cancel-circled" unicode="&#xe83e;" d="m641 224q0 14-10 25l-101 101 101 101q10 11 10 25 0 15-10 26l-51 50q-10 11-25 11-15 0-25-11l-101-101-101 101q-11 11-26 11-15 0-25-11l-50-50q-11-11-11-26 0-14 11-25l101-101-101-101q-11-11-11-25 0-15 11-26l50-50q10-11 25-11 15 0 26 11l101 101 101-101q10-11 25-11 15 0 25 11l51 50q10 11 10 26z m216 126q0-117-57-215t-156-156-215-58-216 58-155 156-58 215 58 215 155 156 216 58 215-58 156-156 57-215z" horiz-adv-x="857.1" />
<glyph glyph-name="info-circled" unicode="&#xe83f;" d="m571 82v89q0 8-5 13t-12 5h-54v286q0 8-5 13t-13 5h-178q-8 0-13-5t-5-13v-89q0-8 5-13t13-5h53v-179h-53q-8 0-13-5t-5-13v-89q0-8 5-13t13-5h250q7 0 12 5t5 13z m-71 500v89q0 8-5 13t-13 5h-107q-8 0-13-5t-5-13v-89q0-8 5-13t13-5h107q8 0 13 5t5 13z m357-232q0-117-57-215t-156-156-215-58-216 58-155 156-58 215 58 215 155 156 216 58 215-58 156-156 57-215z" horiz-adv-x="857.1" />
</font>
</defs>
</svg>
